<mxfile host="app.diagrams.net" modified="2024-07-06T15:18:58.578Z" agent="Mozilla/5.0 (Linux; Android 10; K) AppleWebKit/537.36 (KHTML, like Gecko) Chrome/126.0.0.0 Mobile Safari/537.36" version="24.6.4" etag="7vqLd1RoeK-qcs_Y3maI" type="github">
  <diagram name="Page-1" id="XrvLi3rP-Aw7U-EWsk2T">
    <mxGraphModel>
      <root>
        <mxCell id="0" />
        <mxCell id="1" parent="0" />
      </root>
    </mxGraphModel>
  </diagram>
</mxfile>
